<?xml version="1.0" encoding="utf-8"?>
<!-- Generator: Adobe Illustrator 19.2.1, SVG Export Plug-In . SVG Version: 6.00 Build 0)  -->
<svg version="1.1" id="layer" xmlns="http://www.w3.org/2000/svg" xmlns:xlink="http://www.w3.org/1999/xlink" x="0px" y="0px"
	 viewBox="0 0 652 652" style="enable-background:new 0 0 652 652;" xml:space="preserve">
<style type="text/css">
	.st0{fill:#E5000F;}
	.st1{fill:#4200B3;}
</style>
<path class="st0" d="M173,333.1c5.1,4.1,10.4,5.2,14.1,5.2c5.4,0,8.4-2.4,8.4-5.7c0-9.9-26.1-3.8-26.1-21.8
	c0-9.1,6.8-15.7,17.2-15.7c4.2,0,11.3,1.1,17,5.7l-5.4,7.5c-4.4-3.2-8.9-3.9-11.5-3.9c-5,0-7.3,2.6-7.3,5.3c0,9.5,26,4.3,26,22.4
	c0,9.6-7.3,15.5-18.6,15.5c-7.5,0-14.1-2.7-19.3-6.6L173,333.1z M248.4,295.9h10.1v29.8c0,15.7-8.8,21.7-22.8,21.7
	s-22.8-6-22.8-21.7v-29.8h10.2v26.9c0,9.4,2.2,15.1,12.6,15.1c10.4,0,12.7-5.7,12.7-15.1V295.9z M297,337.9
	c9.5,0,16.6-7.3,16.6-16.7c0-9.2-7.1-16.7-16.5-16.7c-9.4,0-16.5,7.4-16.5,16.7C280.5,330.3,287.2,337.9,297,337.9z M270.1,368.6
	v-72.7h10.1v6.5c4.2-5,10-7.4,16.8-7.4c14.7,0,26.6,11.4,26.6,26.3c0,14.7-11.6,26.2-26.6,26.2c-6.8,0-12.6-2.4-16.8-7.3v28.4H270.1
	z M369.9,316.5c-1.2-7-7.3-12.4-15.2-12.4c-7.9,0-13.7,5.3-15.4,12.4H369.9z M338.9,324.6c1.4,7.7,7.7,13.7,16.2,13.7
	c5.5,0,10.9-2.5,14.1-6.9l7.2,5.5c-4.6,6.6-12.6,10.5-21.2,10.5c-14.6,0-26.3-11.4-26.3-26.2c0-14.1,10.7-26.3,25.7-26.3
	c14.9,0,25.7,12.1,25.7,26.2c0,1.4-0.1,2.5-0.2,3.4H338.9z M388.5,346v-50.2h10.1v6c4.8-5.8,9.8-7,19.6-7v9.7
	c-16.6,0-19.6,6.8-19.6,15.4v26H388.5z M444.2,346.6c-1.7,0.4-3.4,0.8-5.6,0.8c-8.3,0-13.3-5-13.3-14.2v-60.2h10.1V330
	c0,5.4,1.3,7.8,6.2,7.8c0.6,0,1.6,0,2.6-0.1V346.6z M474.4,304.5c-9.4,0-16.3,8-16.3,16.8c0,8.9,7.2,16.6,16.3,16.6
	c9.3,0,16.3-7.8,16.3-16.8C490.8,312,483.5,304.5,474.4,304.5z M474.3,347.4c-14.5,0-26.3-11.7-26.3-26.2
	c0-14.4,11.6-26.3,26.3-26.3c14.6,0,26.6,11.8,26.6,26.3C500.8,335.6,488.8,347.4,474.3,347.4z M532.7,304.5
	c-9.4,0-16.3,8-16.3,16.8c0,8.9,7.2,16.6,16.3,16.6c9.3,0,16.4-7.8,16.4-16.8C549.1,312,541.8,304.5,532.7,304.5z M532.6,347.4
	c-14.5,0-26.3-11.7-26.3-26.2c0-14.4,11.6-26.3,26.3-26.3c14.6,0,26.6,11.8,26.6,26.3C559.1,335.6,547.2,347.4,532.6,347.4z
	 M595,337.9c9.5,0,16.6-7.3,16.6-16.7c0-9.2-7.1-16.7-16.5-16.7c-9.4,0-16.5,7.4-16.5,16.7C578.7,330.3,585.3,337.9,595,337.9z
	 M568.3,368.6v-72.7h10.1v6.5c4.2-5,10-7.4,16.8-7.4c14.7,0,26.6,11.4,26.6,26.3c0,14.7-11.6,26.2-26.6,26.2
	c-6.8,0-12.6-2.4-16.8-7.3v28.4H568.3z M86.8,286.7c4.4-4.4,10.4-6.9,16.7-6.9c6.2,0,12,2.4,16.4,6.7l32.4-32.4
	c-13.4-13.4-31.1-20.1-48.8-20.1c-17.8,0-35.6,6.8-49.1,20.3c-26.9,26.9-27,70.8-0.3,98L86.5,320c-4.3-4.4-6.7-10.2-6.7-16.4
	C79.9,297.2,82.4,291.3,86.8,286.7z"/>
<path class="st1" d="M21.8,385.8c27.1,26.8,71,26.7,98-0.3s27-70.8,0.3-98L87.6,320c8.9,9.2,8.9,24.1-0.3,33.2
	c-9.1,9.1-23.9,9.2-33.2,0.3L21.8,385.8z"/>
</svg>
