<?xml version="1.0" encoding="UTF-8" standalone="no"?>
<!DOCTYPE svg PUBLIC "-//W3C//DTD SVG 1.1//EN" "http://www.w3.org/Graphics/SVG/1.1/DTD/svg11.dtd">
<svg width="100%" height="100%" viewBox="0 0 2133 404" version="1.1" xmlns="http://www.w3.org/2000/svg" xmlns:xlink="http://www.w3.org/1999/xlink" xml:space="preserve" xmlns:serif="http://www.serif.com/" style="fill-rule:evenodd;clip-rule:evenodd;stroke-linejoin:round;stroke-miterlimit:2;">
    <g transform="matrix(1,0,0,1,-38,-112)">
        <g id="VIC">
            <g transform="matrix(1,0,0,1,208.451,452.491)">
                <path d="M0,30.991C-2.832,20.404 -5.514,10.382 -8.291,0C-16.86,4.492 -25.137,8.829 -33.723,13.33C-22.423,19.248 -11.465,24.987 0,30.991" style="fill:rgb(36,105,177);fill-rule:nonzero;"/>
            </g>
            <g transform="matrix(1,0,0,1,137.936,415.854)">
                <path d="M0,22.076C7.568,17.707 14.597,13.648 22.068,9.334C16.455,6.093 11.258,3.092 5.902,0C3.932,7.368 2.04,14.445 0,22.076" style="fill:rgb(36,105,177);fill-rule:nonzero;"/>
            </g>
            <g transform="matrix(0.971274,-0.237964,-0.237964,-0.971274,197.954,434.788)">
                <path d="M-2.892,-2.194C-2.664,-2.095 -2.648,-2.087 -2.421,-1.988C-2.576,5.322 -2.731,12.632 -2.892,20.208C-8.881,18.457 -14.673,16.764 -20.799,14.973C-14.592,9.023 -8.742,3.415 -2.892,-2.194" style="fill:rgb(36,105,177);fill-rule:nonzero;"/>
            </g>
            <g transform="matrix(0.59509,0.803659,0.803659,-0.59509,144.943,389.427)">
                <path d="M8.908,-1.926C9.143,-1.84 9.136,-1.843 9.372,-1.757C9.219,3.393 9.067,8.543 8.908,13.915C5.398,12.948 2.152,12.054 -1.407,11.074C2.154,6.585 5.531,2.329 8.908,-1.926" style="fill:rgb(36,105,177);fill-rule:nonzero;"/>
            </g>
            <g transform="matrix(1,0,0,1,167.856,381.901)">
                <path d="M0,-50.039C-0.16,-50.647 -0.396,-51.236 -0.63,-51.932C-0.939,-51.687 -1.022,-51.655 -1.036,-51.605C-4.864,-37.332 -8.698,-23.061 -12.471,-8.773C-12.608,-8.253 -12.346,-7.336 -11.942,-7.008C-8.279,-4.032 -4.543,-1.145 -0.67,1.893C2.896,-0.911 6.251,-3.613 9.684,-6.213C10.848,-7.094 11.112,-7.915 10.721,-9.374C7.094,-22.914 3.565,-36.482 0,-50.039" style="fill:rgb(36,105,177);fill-rule:nonzero;"/>
            </g>
            <g transform="matrix(1,0,0,1,185.614,381.817)">
                <path d="M0,16.448C-1.539,10.702 -2.931,5.508 -4.406,0C-7.233,2.221 -9.825,4.259 -12.669,6.494C-8.456,9.804 -4.451,12.951 0,16.448" style="fill:rgb(36,105,177);fill-rule:nonzero;"/>
            </g>
            <g transform="matrix(-0.795252,0.606279,0.606279,0.795252,159.591,462.899)">
                <path d="M14.028,-23.771C17.479,-21.106 20.897,-18.467 24.322,-15.821C20.719,-10.606 17.289,-5.273 14.028,0.163C9.998,0.85 5.963,1.538 1.886,2.233C6.001,-6.58 9.949,-15.037 14.028,-23.771" style="fill:rgb(36,105,177);fill-rule:nonzero;"/>
            </g>
            <g transform="matrix(1,0,0,1,147.142,404.062)">
                <path d="M0,5.484C6.317,9.143 12.62,12.827 18.981,16.409C19.529,16.717 20.593,16.58 21.194,16.247C25.269,13.992 29.287,11.633 33.319,9.299C35.701,7.919 38.073,6.523 40.696,4.992C33.687,-0.513 26.918,-5.83 20.04,-11.233C13.14,-5.814 6.315,-0.453 -0.672,5.033C-0.349,5.251 -0.181,5.379 0,5.484" style="fill:rgb(36,105,177);fill-rule:nonzero;"/>
            </g>
            <g transform="matrix(1,0,0,1,138.739,444.064)">
                <path d="M0,2.899C9.037,7.644 18.063,12.41 27.15,17.057C27.884,17.432 29.192,17.257 29.984,16.852C37.466,13.03 44.894,9.104 52.335,5.205C54.046,4.308 55.751,3.401 57.86,2.287C48.05,-3.389 38.626,-8.862 29.156,-14.257C28.671,-14.533 27.692,-14.331 27.127,-14.019C23.722,-12.141 20.369,-10.169 17.001,-8.221C11.06,-4.786 5.122,-1.346 -0.96,2.173C-0.534,2.499 -0.292,2.746 0,2.899" style="fill:rgb(36,105,177);fill-rule:nonzero;"/>
            </g>
            <g transform="matrix(1,0,0,1,236.34,289.655)">
                <path d="M0,47.408C-2.73,55.904 -6.737,63.728 -12.433,70.633C-14.145,72.708 -15.958,74.703 -17.79,76.675C-18.866,77.833 -20.316,77.99 -21.558,77.259C-22.751,76.557 -23.33,75.193 -22.855,73.768C-22.645,73.136 -22.153,72.554 -21.674,72.061C-16.536,66.772 -12.333,60.834 -9.154,54.176C-6.759,49.161 -4.997,43.938 -3.934,38.481C-2.68,32.045 -2.339,25.565 -2.975,19.038C-3.697,11.647 -5.58,4.564 -8.671,-2.191C-11.192,-7.702 -14.406,-12.774 -18.367,-17.363C-19.561,-18.746 -20.82,-20.073 -22.06,-21.417C-23.313,-22.776 -23.38,-24.558 -22.207,-25.729C-20.889,-27.044 -19.049,-27.037 -17.679,-25.636C-13.969,-21.841 -10.645,-17.736 -7.812,-13.237C-4.05,-7.265 -1.148,-0.903 0.717,5.899C2.487,12.353 3.509,18.93 3.395,23.096C3.362,33.077 2.273,40.336 0,47.408M-31.728,62.54C-33.001,63.973 -34.934,63.994 -36.169,62.773C-37.39,61.568 -37.264,59.557 -35.945,58.219C-31.011,53.21 -27.399,47.384 -25.067,40.741C-22.751,34.146 -22.054,27.353 -22.746,20.457C-23.184,16.095 -24.303,11.849 -25.995,7.756C-27.739,3.542 -30.044,-0.311 -32.895,-3.844C-33.858,-5.039 -34.926,-6.153 -35.992,-7.259C-37.284,-8.599 -37.395,-10.715 -36.179,-11.833C-34.824,-13.078 -32.784,-12.87 -31.514,-11.354C-29.621,-9.095 -27.563,-6.952 -25.87,-4.553C-21.666,1.405 -18.761,7.973 -17.521,15.189C-17.089,17.701 -16.803,20.239 -16.507,22.775C-16.507,22.913 -16.506,23.049 -16.505,23.186C-16.518,23.368 -16.515,23.551 -16.494,23.732C-16.532,24.06 -16.515,24.395 -16.443,24.717C-16.442,24.747 -16.442,24.778 -16.44,24.808C-16.445,24.916 -16.447,25.025 -16.441,25.133C-16.442,25.158 -16.441,25.183 -16.442,25.208C-16.445,25.27 -16.447,25.331 -16.447,25.393L-16.505,25.399C-16.475,29.23 -16.817,33.02 -17.664,36.761C-19.222,43.644 -21.856,50.062 -26.074,55.749C-27.826,58.112 -29.773,60.338 -31.728,62.54M-45.767,48.559C-47.011,49.845 -48.997,49.906 -50.184,48.767C-51.456,47.546 -51.445,45.618 -50.04,44.277C-47.821,42.159 -45.875,39.762 -44.733,36.916C-40.736,26.96 -41.685,17.409 -48.287,8.444C-48.777,7.78 -49.409,7.245 -50.025,6.696C-51.432,5.442 -51.417,3.397 -50.128,2.14C-48.987,1.027 -47.094,1.052 -45.878,2.299C-42.01,6.264 -39.214,10.843 -37.642,16.208C-36.726,19.332 -36.519,22.499 -36.297,25.772C-36.464,34.56 -39.603,42.188 -45.767,48.559M-91.784,40.03C-90.818,41.665 -89.487,43.031 -88.17,44.398C-86.937,45.676 -86.962,47.584 -88.208,48.836C-89.289,49.921 -91.377,49.825 -92.549,48.616C-97.562,43.442 -100.694,37.321 -101.703,30.168C-101.931,28.553 -101.95,26.908 -102.047,25.543C-101.814,16.358 -98.724,8.644 -92.425,2.278C-91.259,1.1 -89.286,1.101 -88.159,2.205C-86.909,3.43 -86.893,5.312 -88.205,6.593C-89.972,8.318 -91.624,10.17 -92.717,12.386C-97.35,21.778 -97.11,31.019 -91.784,40.03M-102.17,62.801C-103.491,64.029 -105.555,63.849 -106.774,62.399C-108.609,60.216 -110.588,58.136 -112.249,55.827C-116.783,49.519 -119.777,42.517 -121.008,34.826C-121.375,32.534 -121.605,30.219 -121.845,27.906C-121.846,27.731 -121.847,27.557 -121.848,27.382C-121.838,27.237 -121.835,27.091 -121.848,26.945C-121.833,26.731 -121.84,26.515 -121.872,26.302C-121.836,26.058 -121.829,25.809 -121.855,25.564C-121.842,25.563 -121.83,25.562 -121.817,25.56C-121.966,19.558 -120.935,13.739 -118.956,8.102C-116.617,1.438 -113.125,-4.568 -108.324,-9.782C-107.738,-10.419 -107.169,-11.072 -106.559,-11.684C-105.317,-12.929 -103.436,-12.996 -102.235,-11.865C-101.036,-10.734 -100.996,-8.711 -102.223,-7.451C-105.237,-4.354 -107.867,-0.977 -109.954,2.815C-112.872,8.116 -114.751,13.739 -115.463,19.767C-115.998,24.293 -115.984,28.808 -115.21,33.282C-114.461,37.612 -113.159,41.799 -111.224,45.771C-109.323,49.672 -106.903,53.223 -104.059,56.491C-103.749,56.847 -102.502,58.054 -102.187,58.406C-101.026,59.704 -100.993,61.708 -102.17,62.801M-115.532,75.744C-116.353,77.834 -119.025,78.399 -120.579,76.669C-123.168,73.785 -125.719,70.853 -128.08,67.783C-130.841,64.193 -133.031,60.227 -134.952,56.123C-137.143,51.441 -138.792,46.578 -139.932,41.532C-141.686,33.764 -142.109,25.932 -141.332,18.012C-140.478,9.305 -137.974,1.086 -134.204,-6.774C-134.058,-7.078 -133.806,-7.331 -133.603,-7.608C-132.843,-9.075 -132.161,-10.588 -131.31,-12C-128.321,-16.96 -124.791,-21.506 -120.675,-25.589C-119.573,-26.683 -118.248,-27.006 -117.107,-26.449C-115.101,-25.469 -114.753,-23.186 -116.253,-21.466C-118.651,-18.717 -121.167,-16.042 -123.284,-13.085C-125.382,-10.157 -127.047,-6.919 -128.905,-3.818C-129.017,-3.632 -129.153,-3.46 -129.278,-3.281C-129.635,-2.403 -129.981,-1.52 -130.349,-0.646C-131.863,2.943 -133.135,6.637 -133.981,10.439C-135.577,17.609 -136.073,24.827 -135.344,32.109C-134.484,40.687 -132.086,48.809 -128.072,56.433C-125.019,62.231 -121.169,67.468 -116.536,72.112C-115.491,73.16 -114.965,74.297 -115.532,75.744M367.836,100.683C337.026,82.989 306.216,65.296 275.407,47.602C274.231,46.927 273.728,45.517 274.158,44.231C277.765,33.423 273.431,21.274 269.099,10.497C263.933,-2.356 256.032,-17.287 242.202,-18.071C235.037,-18.477 228.371,-14.728 222.178,-11.101C217.223,-8.198 212.267,-5.295 207.312,-2.392C205.397,-1.271 202.918,-1.573 201.431,-3.22C192.461,-13.156 175.971,-13.53 162.115,-12.008C146.999,-10.348 129.502,-8.631 118.739,-19.373C115.412,-22.693 112.76,-27.186 108.25,-28.511C105.71,-29.257 102.992,-28.841 100.379,-28.419C93.736,-27.347 87.094,-26.274 80.451,-25.202C77.626,-24.746 74.604,-24.193 72.579,-22.171C67.991,-17.59 70.936,-8.027 63.71,-5.611C60.639,-4.584 57.245,-5.431 54.789,-7.541C36.474,-23.267 18.159,-38.993 -0.155,-54.72C-7.181,-60.752 -14.343,-66.947 -18.968,-74.969C-22.377,-80.88 -24.262,-87.546 -27.371,-93.62C-35.156,-108.832 -51.038,-119.51 -67.989,-121.314C-70.285,-121.558 -72.47,-120.098 -73.039,-117.861C-73.365,-116.581 -73.875,-115.349 -74.553,-114.216C-74.965,-113.528 -75.862,-113.315 -76.558,-113.714C-91.539,-122.298 -87.883,-149.407 -103.369,-157.98C-111.374,-162.41 -121.207,-159.903 -130.286,-158.772C-144.166,-157.042 -158.471,-158.949 -171.448,-164.156C-175.705,-165.864 -180.339,-162.744 -180.336,-158.157L-180.177,144.07C-180.176,146.988 -179.017,149.785 -176.954,151.848C-170.44,158.364 -163.926,164.88 -157.413,171.397C-155.67,173.14 -153.641,175.005 -151.177,174.966C-148.603,174.926 -146.607,172.843 -144.462,171.42C-138,167.129 -129.426,168.648 -121.925,170.622C-119.657,171.219 -117.399,171.853 -115.147,172.504C-111.482,159.564 -107.8,146.63 -104.057,133.714C-94.819,101.827 -85.408,69.989 -76.016,38.147C-75.489,36.362 -75.633,35.223 -77.056,33.821C-80.339,30.585 -80.726,25.222 -78.318,21.279C-75.796,17.15 -70.864,15.248 -66.195,16.604C-61.775,17.888 -58.704,22.039 -58.668,26.777C-58.693,29.678 -59.638,32.245 -61.766,34.204C-62.667,35.033 -63.022,36.301 -62.675,37.476C-54.324,65.788 -45.952,94.094 -37.75,122.45C-29.499,150.975 -21.429,179.554 -13.27,208.106C-10.465,205.858 -8.079,202.933 -5.676,200.215C8.046,184.693 26.529,173.435 46.626,168.391C48.388,167.949 50.914,166.529 52.242,165.289C60.213,157.846 56.872,152.458 44.839,155.039C44.026,155.213 43.178,155.028 42.347,155.093C39.938,155.28 38.782,152.226 40.697,150.753C47.274,145.692 53.098,138.923 60.762,138.411C68.152,137.918 74.402,143.587 75.604,150.895C77.08,159.875 70.756,168.071 62.677,171.305C61.753,171.675 61.101,172.539 60.981,173.527C60.412,178.229 67.004,182.558 72.225,181.37C78.114,180.03 82.464,175.162 87.761,172.262C93.059,169.363 101.369,169.562 103.364,175.262C104.753,179.231 102.197,183.739 103.447,187.755C105.78,195.248 117.897,194.067 122.368,200.517C125.412,204.906 124.369,212.219 131.378,212.966C134.25,213.272 137.043,212.1 139.168,210.144C145.457,204.356 153.889,204.901 161.743,203.889C209.317,197.755 233.103,135.917 280.157,126.602C297.517,123.165 315.365,127.609 333.057,127.978C345.508,128.238 359.172,125.565 368.857,118.404C375.006,113.858 374.467,104.491 367.836,100.683" style="fill:rgb(36,105,177);fill-rule:nonzero;"/>
            </g>
            <g transform="matrix(1,0,0,1,211.32,477.747)">
                <path d="M0,16.521C-0.271,15.702 -0.951,14.785 -1.697,14.39C-15.399,7.145 -29.128,-0.046 -42.897,-7.162C-43.638,-7.544 -44.938,-7.487 -45.698,-7.094C-48.549,-5.619 -51.392,-4.13 -54.24,-2.65C-41.751,2.786 -29.632,9.073 -18.013,16.18C-11.858,19.945 -4.888,24.065 2.011,23.831C1.956,23.675 1.9,23.52 1.854,23.355C1.227,21.079 0.742,18.758 0,16.521" style="fill:rgb(36,105,177);fill-rule:nonzero;"/>
            </g>
        </g>
        <g id="TEXT">
            <g transform="matrix(1,0,0,1,768.022,405.762)">
                <path d="M0,-182.533L34.434,-182.533L-40.908,0L-68.87,0L-144.214,-182.533L-109.002,-182.533L-54.372,-43.238L0,-182.533Z" style="fill:rgb(36,105,177);fill-rule:nonzero;"/>
            </g>
            <g transform="matrix(-1,0,0,1,1723.21,0.001)">
                <rect x="845.682" y="223.228" width="31.846" height="181.238" style="fill:rgb(36,105,177);"/>
            </g>
            <g transform="matrix(1,0,0,1,1020.44,220.121)">
                <path d="M0,187.452C-52.818,187.452 -92.172,146.287 -92.172,93.987C-92.172,42.203 -53.594,0 1.295,0C34.694,0 54.889,11.652 72.236,28.222L51.782,51.784C37.284,38.319 21.749,29.257 1.036,29.257C-33.658,29.257 -58.772,57.738 -58.772,93.468C-58.772,129.198 -33.658,158.195 1.036,158.195C23.303,158.195 37.542,149.133 53.077,134.635L73.531,155.347C54.631,175.025 33.918,187.452 0,187.452" style="fill:rgb(36,105,177);fill-rule:nonzero;"/>
            </g>
            <g transform="matrix(1,0,0,1,1216.68,220.121)">
                <path d="M0,187.452C-52.818,187.452 -92.172,146.287 -92.172,93.987C-92.172,42.203 -53.595,0 1.295,0C34.695,0 54.889,11.652 72.237,28.222L51.782,51.784C37.284,38.319 21.749,29.257 1.036,29.257C-33.658,29.257 -58.772,57.738 -58.772,93.468C-58.772,129.198 -33.658,158.195 1.036,158.195C23.303,158.195 37.543,149.133 53.077,134.635L73.531,155.347C54.631,175.025 33.918,187.452 0,187.452" style="fill:rgb(36,105,177);fill-rule:nonzero;"/>
            </g>
            <g transform="matrix(1,0,0,1,1415.25,378.316)">
                <path d="M0,-128.938C-35.989,-128.938 -61.102,-100.198 -61.102,-64.727C-61.102,-29.257 -35.47,0 0.519,0C36.506,0 61.622,-28.738 61.622,-64.209C61.622,-99.681 35.989,-128.938 0,-128.938M0,29.257C-55.665,29.257 -94.502,-12.946 -94.502,-64.209C-94.502,-115.473 -55.147,-158.195 0.519,-158.195C56.184,-158.195 95.021,-115.992 95.021,-64.727C95.021,-13.463 55.665,29.257 0,29.257" style="fill:rgb(36,105,177);fill-rule:nonzero;"/>
            </g>
            <g transform="matrix(1,0,0,1,1648.26,267.762)">
                <path d="M0,92.173L-1.035,92.173L-57.738,7.249L-57.738,136.706L-89.065,136.706L-89.065,-44.533L-55.149,-44.533L0,41.168L55.149,-44.533L89.065,-44.533L89.065,136.706L57.219,136.706L57.219,6.732L0,92.173Z" style="fill:rgb(36,105,177);fill-rule:nonzero;"/>
            </g>
            <g transform="matrix(1,0,0,1,1883.33,267.762)">
                <path d="M0,92.173L-1.035,92.173L-57.738,7.249L-57.738,136.706L-89.065,136.706L-89.065,-44.533L-55.149,-44.533L0,41.168L55.149,-44.533L89.065,-44.533L89.065,136.706L57.219,136.706L57.219,6.732L0,92.173Z" style="fill:rgb(36,105,177);fill-rule:nonzero;"/>
            </g>
            <g transform="matrix(1,0,0,1,2099.25,328.349)">
                <path d="M0,-29C38.319,-19.679 58.254,-5.957 58.254,24.335C58.254,58.513 31.587,78.708 -6.473,78.708C-34.176,78.708 -60.327,69.127 -82.076,49.708L-62.916,26.924C-45.568,41.943 -28.221,50.486 -5.697,50.486C13.981,50.486 26.408,41.424 26.408,27.443C26.408,14.238 19.159,7.248 -14.5,-0.519C-53.076,-9.841 -74.825,-21.232 -74.825,-54.89C-74.825,-86.478 -48.935,-107.708 -12.946,-107.708C13.462,-107.708 34.435,-99.681 52.817,-84.924L35.73,-60.846C19.419,-73.014 3.106,-79.487 -13.465,-79.487C-32.105,-79.487 -42.979,-69.908 -42.979,-57.738C-42.979,-43.498 -34.695,-37.284 0,-29" style="fill:rgb(36,105,177);fill-rule:nonzero;"/>
            </g>
        </g>
    </g>
</svg>
